<svg xmlns="http://www.w3.org/2000/svg" viewBox="0 0 1000 300" width="100%" height="100%">
  <defs>
    <!-- Dark deep space background -->
    <linearGradient id="bg" x1="0%" y1="0%" x2="100%" y2="100%">
      <stop offset="0%" stop-color="#090a0f"/>
      <stop offset="50%" stop-color="#11131c"/>
      <stop offset="100%" stop-color="#05060a"/>
    </linearGradient>

    <!-- Neon orange/red accent for the gavel representing execution/power -->
    <linearGradient id="neonOrange" x1="0%" y1="0%" x2="100%" y2="100%">
      <stop offset="0%" stop-color="#ff4b2b"/>
      <stop offset="100%" stop-color="#ff416c"/>
    </linearGradient>

    <linearGradient id="neonCyan" x1="0%" y1="100%" x2="100%" y2="0%">
      <stop offset="0%" stop-color="#00f2fe"/>
      <stop offset="100%" stop-color="#4facfe"/>
    </linearGradient>

    <filter id="glow">
      <feGaussianBlur stdDeviation="8" result="blur" />
      <feMerge>
        <feMergeNode in="blur" />
        <feMergeNode in="SourceGraphic" />
      </feMerge>
    </filter>

    <filter id="lightGlow">
      <feGaussianBlur stdDeviation="3" result="blur" />
      <feMerge>
        <feMergeNode in="blur" />
        <feMergeNode in="SourceGraphic" />
      </feMerge>
    </filter>
  </defs>

  <rect width="1000" height="300" rx="16" fill="url(#bg)"/>

  <!-- Subtle grid -->
  <g opacity="0.05">
    <pattern id="grid" width="40" height="40" patternUnits="userSpaceOnUse">
      <path d="M 40 0 L 0 0 0 40" fill="none" stroke="#4facfe" stroke-width="1"/>
    </pattern>
    <rect width="1000" height="300" fill="url(#grid)" rx="16"/>
  </g>

  <!-- Left Side: Cyber Gavel & Shockwave -->
  <g transform="translate(180, 150)">
    
    <!-- Shockwave Rings -->
    <ellipse cx="0" cy="50" rx="90" ry="25" fill="none" stroke="url(#neonCyan)" stroke-width="2" filter="url(#glow)" opacity="0.4"/>
    <ellipse cx="0" cy="50" rx="140" ry="40" fill="none" stroke="url(#neonCyan)" stroke-width="1" filter="url(#lightGlow)" opacity="0.2"/>
    <ellipse cx="0" cy="50" rx="40" ry="10" fill="url(#neonCyan)" filter="url(#glow)" opacity="0.3"/>

    <!-- Gavel Head -->
    <g transform="rotate(-15) translate(-10, -40)">
      <!-- Barrel -->
      <path d="M -40 -15 L 40 -15 L 35 15 L -35 15 Z" fill="#1a1d2e" stroke="url(#neonCyan)" stroke-width="3" filter="url(#lightGlow)"/>
      <rect x="-45" y="-18" width="10" height="36" rx="2" fill="url(#neonOrange)" filter="url(#glow)"/>
      <rect x="35" y="-18" width="10" height="36" rx="2" fill="url(#neonOrange)" filter="url(#glow)"/>
      
      <!-- Core Line -->
      <line x1="-35" y1="0" x2="35" y2="0" stroke="url(#neonCyan)" stroke-width="1.5" opacity="0.5"/>
    </g>

    <!-- Gavel Handle -->
    <path d="M -20 -30 L -60 -100 L -50 -105 L -10 -35 Z" fill="#2d334a" stroke="url(#neonCyan)" stroke-width="1.5"/>
    <path d="M -52 -108 L -68 -95 L -62 -85 L -45 -98 Z" fill="url(#neonCyan)" filter="url(#glow)"/>
    
    <!-- Particle Sparks -->
    <circle cx="20" cy="30" r="3" fill="url(#neonOrange)" filter="url(#glow)"/>
    <circle cx="-30" cy="65" r="2" fill="url(#neonCyan)" filter="url(#glow)"/>
    <circle cx="50" cy="45" r="2.5" fill="#fff" filter="url(#lightGlow)"/>
    <circle cx="-5" cy="20" r="4" fill="url(#neonOrange)" filter="url(#glow)"/>
  </g>

  <!-- Right Side: Typography -->
  <g transform="translate(380, 160)">
    <text x="0" y="0" font-family="'Inter', -apple-system, sans-serif" font-weight="900" font-size="76" fill="#ffffff" letter-spacing="2">
      OPEN<tspan fill="url(#neonCyan)">JUDGE</tspan>
    </text>
    <text x="5" y="45" font-family="'Consolas', monospace" font-weight="bold" font-size="18" fill="#ff4b2b" letter-spacing="1">
      &gt;_ TRUST NOTHING. EXECUTE EVERYTHING.
    </text>
    
    <!-- Code Bracket Decoration -->
    <text x="0" y="-60" font-family="monospace" font-size="12" fill="#8892b0" opacity="0.7">
      sys.run("truth_extraction.sh") | status: ENFORCE
    </text>
  </g>

</svg>
